<svg width="16" height="16" viewBox="0 0 16 16" fill="none" xmlns="http://www.w3.org/2000/svg">
<path d="M7.30221 3.4478C7.0981 3.4478 6.89563 3.60489 6.89563 3.84084V9.02596C6.89563 9.1592 6.96353 9.27889 7.07172 9.35033L7.07288 9.35109L10.465 11.6204L10.4659 11.621C10.6396 11.7361 10.8828 11.7065 11.018 11.5395L11.019 11.5383L11.6059 10.804L11.609 10.8001C11.7477 10.619 11.7046 10.3633 11.5121 10.2388L8.69581 8.37057V3.84084C8.69581 3.60489 8.49334 3.4478 8.28923 3.4478H7.30221Z" fill="#474747"/>
<path fill-rule="evenodd" clip-rule="evenodd" d="M8 0C3.58213 0 0 3.58213 0 8C0 12.4179 3.58213 16 8 16C12.4179 16 16 12.4179 16 8C16 3.58213 12.4179 0 8 0ZM1.80087 8C1.80087 4.57718 4.57718 1.80087 8 1.80087C11.4228 1.80087 14.1991 4.57718 14.1991 8C14.1991 11.4228 11.4228 14.1991 8 14.1991C4.57718 14.1991 1.80087 11.4228 1.80087 8Z" fill="#474747"/>
</svg>
