<svg width="244" height="230" viewBox="0 0 244 230" fill="none" xmlns="http://www.w3.org/2000/svg">
<path d="M117.219 15.6137C147.884 12.298 180.924 20.5946 194.781 41.2162C208.643 61.7688 203.321 94.6465 204.999 127.249C206.677 159.851 215.314 192.147 203.222 207.387C191.131 222.626 158.273 220.772 133.443 213.703C108.613 206.635 91.8407 194.412 73.9449 180.652C56.115 166.874 37.1733 151.65 29.6878 129.396C22.1363 107.145 26.0409 77.9456 42.1387 55.8834C58.2366 33.8211 86.5547 18.9263 117.219 15.6137Z" fill="#FCFCFD"/>
<path fill-rule="evenodd" clip-rule="evenodd" d="M168.165 39.7637C168.321 39.7824 168.457 39.8802 168.525 40.0226L221.211 151.181C221.287 151.341 221.264 151.531 221.151 151.668C221.039 151.805 220.857 151.865 220.685 151.822L102.097 122.11C101.945 122.072 101.823 121.959 101.774 121.811C101.724 121.663 101.754 121.499 101.852 121.378L167.754 39.9306C167.853 39.8081 168.008 39.7451 168.165 39.7637ZM103.017 121.396L219.967 150.697L168.008 41.0737L103.017 121.396Z" fill="#C4D1D9"/>
<path d="M147.245 185.295H95.6642H44.0833L0 224.579H95.6642H191.328L147.245 185.295Z" fill="#E9F8F9"/>
<path fill-rule="evenodd" clip-rule="evenodd" d="M44.3867 201.732C44.3867 201.318 44.7221 200.983 45.1359 200.983C49.0939 200.983 51.1071 203.142 52.9143 205.079L52.9476 205.115C54.7637 207.062 56.382 208.77 59.6635 208.77C62.945 208.77 64.5633 207.062 66.3794 205.115L66.4127 205.079C68.2199 203.142 70.2331 200.983 74.1911 200.983C78.1492 200.983 80.1617 203.142 81.9682 205.079L82.0015 205.115C83.8168 207.062 85.4344 208.77 88.7158 208.77C91.9972 208.77 93.6156 207.062 95.4316 205.115L95.4649 205.079C97.2721 203.142 99.2854 200.983 103.243 200.983C107.202 200.983 109.215 203.142 111.022 205.08L111.055 205.115C112.871 207.062 114.488 208.77 117.768 208.77C118.182 208.77 118.517 209.106 118.517 209.519C118.517 209.933 118.182 210.268 117.768 210.268C113.812 210.268 111.799 208.11 109.993 206.172L109.959 206.136C108.143 204.189 106.525 202.481 103.243 202.481C99.9619 202.481 98.3436 204.189 96.5275 206.136L96.4942 206.172C94.687 208.109 92.6738 210.268 88.7158 210.268C84.7576 210.268 82.7452 208.109 80.9386 206.172L80.9054 206.136C79.0901 204.189 77.4725 202.481 74.1911 202.481C70.9097 202.481 69.2913 204.189 67.4753 206.136L67.442 206.172C65.6347 208.109 63.6215 210.268 59.6635 210.268C55.7055 210.268 53.6923 208.109 51.885 206.172L51.8517 206.136C50.0357 204.189 48.4173 202.481 45.1359 202.481C44.7221 202.481 44.3867 202.145 44.3867 201.732Z" fill="#4676D4"/>
<path d="M226.17 108.34C227.668 113.432 224.971 140.987 218.978 164.949C221.375 176.63 229.765 217.364 229.765 217.364H216.281L188.412 147.577L226.17 108.34Z" fill="#C4D1D9"/>
<path d="M223.736 141.41C226.277 125.488 227.182 111.782 226.17 108.34L188.412 147.577L201.352 179.978C205.616 166.428 212.691 151.425 223.736 141.41Z" fill="black" fill-opacity="0.15"/>
<path d="M176.417 29.8077C184.652 29.8077 191.328 23.135 191.328 14.9038C191.328 6.67267 184.652 0 176.417 0C168.182 0 161.506 6.67267 161.506 14.9038C161.506 23.135 168.182 29.8077 176.417 29.8077Z" fill="#DADADA"/>
<path fill-rule="evenodd" clip-rule="evenodd" d="M191.952 5.35304C192.197 5.63263 192.168 6.05742 191.889 6.30183C187.541 10.1003 182.144 12.4924 176.409 13.1627C170.674 13.833 164.87 12.7499 159.763 10.0563C159.435 9.88301 159.309 9.47626 159.482 9.14782C159.656 8.81939 160.063 8.69364 160.391 8.86696C165.257 11.4336 170.788 12.4657 176.253 11.827C181.718 11.1883 186.861 8.90886 191.003 5.28934C191.283 5.04493 191.708 5.07345 191.952 5.35304Z" fill="#7C9EE2"/>
<path fill-rule="evenodd" clip-rule="evenodd" d="M166.277 17.8231C166.271 17.8675 166.264 18.0133 166.422 18.3224C166.622 18.7136 167.01 19.1854 167.551 19.6141C168.098 20.0414 168.649 20.3042 169.077 20.4035C169.418 20.4828 169.558 20.4388 169.599 20.4215C169.606 20.3778 169.615 20.2318 169.457 19.9216C169.258 19.5317 168.871 19.0605 168.323 18.6322C167.776 18.204 167.224 17.9408 166.797 17.8414C166.459 17.7628 166.319 17.8055 166.277 17.8231ZM167.102 16.5316C167.76 16.6846 168.486 17.0519 169.153 17.5732C169.819 18.0943 170.35 18.7103 170.656 19.3111C170.934 19.8576 171.142 20.6442 170.664 21.2544C170.186 21.8655 169.37 21.8523 168.772 21.7134C168.114 21.5605 167.387 21.1933 166.72 20.6719L166.717 20.6694L166.717 20.6693C166.06 20.1489 165.531 19.534 165.224 18.935C164.946 18.3921 164.732 17.6033 165.211 16.9906C165.689 16.3796 166.505 16.3926 167.102 16.5316Z" fill="#7C9EE2"/>
<path fill-rule="evenodd" clip-rule="evenodd" d="M157.652 82.6959C157.652 80.6626 158.255 78.6748 159.384 76.9839C160.514 75.293 162.12 73.975 164 73.1966C165.879 72.4182 167.947 72.2144 169.942 72.6109C171.938 73.0075 173.77 73.9866 175.209 75.4243C176.647 76.8621 177.627 78.694 178.024 80.6882C178.42 82.6825 178.217 84.7496 177.438 86.628C176.659 88.5064 175.34 90.1118 173.649 91.2411C171.957 92.3704 169.968 92.9728 167.934 92.9722C165.207 92.9722 162.592 91.8895 160.664 89.9624C158.736 88.0352 157.652 85.4214 157.652 82.6959Z" fill="#DADADA"/>
<path d="M164.134 218.346C159.939 218.346 149.511 218.867 142.951 229.997H173.205V218.346H164.134Z" fill="#E5EBEF"/>
<path d="M220.599 216.848C216.404 216.848 205.976 217.37 199.416 228.499H229.661L229.766 217.361L220.599 216.848Z" fill="#C4D1D9"/>
<path d="M185.566 102.799L244.001 63.2634L198.752 22.829L185.566 102.799Z" fill="#7C9EE2"/>
<path d="M191.329 106.268C191.329 106.268 233.764 77.1579 236.461 77.1579C236.461 77.1579 244.001 111.078 193.807 151.171C191.41 158.659 173.131 218.262 173.131 218.262L160.545 220.059C160.545 220.059 170.434 142.784 172.531 139.19C174.629 135.596 191.329 106.268 191.329 106.268Z" fill="#E5EBEF"/>
<path d="M181.894 57.4597C182.62 57.7641 183.278 58.2083 183.832 58.7671C184.386 59.3259 184.825 59.9882 185.123 60.7163C185.42 61.4445 185.572 62.2241 185.568 63.0108C185.565 63.7974 185.406 64.5757 185.102 65.3011L127.609 202.27L116.556 197.635L174.049 60.6661C174.664 59.2011 175.836 58.0402 177.307 57.4389C178.778 56.8376 180.428 56.8451 181.894 57.4597Z" fill="#7C9EE2"/>
<path fill-rule="evenodd" clip-rule="evenodd" d="M144.338 122.978C144.338 120.945 144.941 118.957 146.071 117.267C147.201 115.577 148.807 114.259 150.686 113.481C152.565 112.703 154.633 112.499 156.628 112.896C158.622 113.292 160.455 114.271 161.893 115.708C163.332 117.145 164.312 118.977 164.709 120.97C165.106 122.964 164.903 125.031 164.125 126.909C163.347 128.788 162.029 130.393 160.338 131.523C158.647 132.653 156.659 133.256 154.625 133.257C153.274 133.258 151.937 132.992 150.688 132.476C149.44 131.96 148.306 131.203 147.35 130.248C146.395 129.293 145.637 128.16 145.12 126.912C144.603 125.665 144.337 124.328 144.338 122.978Z" fill="#DADADA"/>
<path fill-rule="evenodd" clip-rule="evenodd" d="M204.515 26.9478C204.818 27.2466 204.821 27.734 204.522 28.0364L197.33 35.3116C197.031 35.614 196.543 35.617 196.241 35.3182C195.938 35.0194 195.935 34.532 196.234 34.2296L203.426 26.9544C203.725 26.652 204.212 26.649 204.515 26.9478Z" fill="#9EF5EE"/>
<path fill-rule="evenodd" clip-rule="evenodd" d="M210.51 32.3045C210.812 32.604 210.814 33.0914 210.514 33.3931L195.084 48.9259C194.785 49.2276 194.297 49.2293 193.995 48.9298C193.693 48.6303 193.692 48.1429 193.991 47.8412L209.421 32.3084C209.72 32.0067 210.208 32.005 210.51 32.3045Z" fill="#9EF5EE"/>
<path fill-rule="evenodd" clip-rule="evenodd" d="M216.613 37.7586C216.915 38.0581 216.917 38.5455 216.617 38.8472L192.791 62.8353C192.492 63.137 192.004 63.1387 191.702 62.8392C191.4 62.5397 191.399 62.0523 191.698 61.7506L215.524 37.7625C215.824 37.4608 216.312 37.4591 216.613 37.7586Z" fill="#9EF5EE"/>
<path fill-rule="evenodd" clip-rule="evenodd" d="M224.254 44.5875C224.556 44.8871 224.558 45.3744 224.258 45.6761L189.92 80.249C189.621 80.5508 189.133 80.5525 188.831 80.253C188.529 79.9535 188.527 79.4661 188.827 79.1644L223.165 44.5915C223.465 44.2898 223.953 44.288 224.254 44.5875Z" fill="#9EF5EE"/>
<path fill-rule="evenodd" clip-rule="evenodd" d="M231.087 50.6946C231.389 50.9941 231.391 51.4815 231.091 51.7832L187.379 95.7938C187.08 96.0955 186.592 96.0973 186.29 95.7978C185.988 95.4983 185.986 95.0109 186.286 94.7092L229.998 50.6986C230.297 50.3969 230.785 50.3951 231.087 50.6946Z" fill="#9EF5EE"/>
<path fill-rule="evenodd" clip-rule="evenodd" d="M237.644 56.5532C237.946 56.8527 237.948 57.3401 237.648 57.6418L204.832 90.6752C204.533 90.9769 204.045 90.9786 203.743 90.6791C203.441 90.3795 203.44 89.8921 203.739 89.5905L236.555 56.557C236.855 56.2554 237.343 56.2536 237.644 56.5532Z" fill="#9EF5EE"/>
</svg>
