<svg width="215" height="242" viewBox="0 0 215 242" fill="none" xmlns="http://www.w3.org/2000/svg">
<path d="M166.73 50.0841C180.034 71.123 177.372 100.459 176.611 129.033C175.851 157.607 177.034 185.449 163.736 194.566C150.439 203.682 122.679 194.056 97.5909 191.349C72.5023 188.642 50.0726 192.912 33.5565 183.814C17.0404 174.715 6.30907 152.233 8.21339 131.701C10.1177 111.169 24.5529 92.459 41.1109 71.4621C57.6689 50.4652 76.2541 27.0496 100.202 21.6811C124.15 16.3126 153.424 29.0872 166.73 50.0841Z" fill="#FCFCFD"/>
<path fill-rule="evenodd" clip-rule="evenodd" d="M154.119 90.9586C121.001 90.9586 94.1535 117.865 94.1535 151.056C94.1535 184.248 121.001 211.154 154.119 211.154C187.237 211.154 214.084 184.248 214.084 151.056C214.084 117.865 187.237 90.9586 154.119 90.9586ZM93.2373 151.056C93.2373 117.358 120.495 90.0403 154.119 90.0403C187.743 90.0403 215 117.358 215 151.056C215 184.755 187.743 212.073 154.119 212.073C120.495 212.073 93.2373 184.755 93.2373 151.056Z" fill="#C4D1D9"/>
<path fill-rule="evenodd" clip-rule="evenodd" d="M88.1437 117.291C83.5835 99.676 82.7541 41.0516 112.178 38.2188C132.404 36.2682 151.286 90.0403 150.151 108.898C137.815 121.3 99.8691 125.222 88.1437 117.291Z" fill="#7C9EE2"/>
<path fill-rule="evenodd" clip-rule="evenodd" d="M135.227 52.9547C135.601 53.1564 135.741 53.624 135.54 53.9992C130.374 63.6334 127.786 74.4444 128.027 85.3791C128.269 96.3138 131.332 106.999 136.919 116.395C137.136 116.761 137.017 117.234 136.652 117.452C136.286 117.67 135.814 117.551 135.597 117.185C129.874 107.56 126.736 96.6143 126.489 85.4133C126.241 74.2122 128.892 63.1379 134.185 53.269C134.386 52.8938 134.852 52.7531 135.227 52.9547Z" fill="#9EF5EE"/>
<path fill-rule="evenodd" clip-rule="evenodd" d="M113.749 37.4185C114.153 37.2882 114.587 37.5112 114.717 37.9167C119.078 51.5109 118.841 66.1676 114.042 79.613C109.244 93.0584 100.152 104.541 88.1778 112.28C87.8207 112.51 87.3444 112.407 87.1141 112.049C86.8838 111.691 86.9866 111.214 87.3438 110.983C99.0335 103.429 107.909 92.2192 112.593 79.0935C117.278 65.9678 117.509 51.6597 113.252 38.3888C113.122 37.9833 113.344 37.5489 113.749 37.4185Z" fill="#9EF5EE"/>
<path fill-rule="evenodd" clip-rule="evenodd" d="M66.3643 8.84673C66.5207 8.86545 66.6566 8.96339 66.724 9.10607L119.365 120.476C119.441 120.637 119.418 120.827 119.306 120.964C119.193 121.101 119.012 121.161 118.84 121.118L0.346732 91.3499C0.19503 91.3118 0.0732086 91.1988 0.0236319 91.0501C-0.0259448 90.9014 0.00357382 90.7377 0.101923 90.6158L65.9538 9.0139C66.0529 8.89115 66.2079 8.82802 66.3643 8.84673ZM1.26558 90.6341L118.122 119.991L66.208 10.1592L1.26558 90.6341Z" fill="#C4D1D9"/>
<path d="M105.837 30.9327C114.065 30.9327 120.736 24.2473 120.736 16.0005C120.736 7.75367 114.065 1.0683 105.837 1.0683C97.6081 1.0683 90.9375 7.75367 90.9375 16.0005C90.9375 24.2473 97.6081 30.9327 105.837 30.9327Z" fill="#DADADA"/>
<path fill-rule="evenodd" clip-rule="evenodd" d="M97.7401 0.0311355C98.0934 -0.0832598 98.4723 0.111016 98.5864 0.465061C100.277 5.70869 103.513 10.3157 107.869 13.6788C112.225 17.0419 117.495 19.0032 122.985 19.3039C123.356 19.3242 123.64 19.6419 123.62 20.0134C123.599 20.3849 123.283 20.6696 122.912 20.6493C117.15 20.3337 111.619 18.2755 107.049 14.7462C102.478 11.2169 99.0812 6.38211 97.3072 0.879323C97.193 0.525277 97.3869 0.145531 97.7401 0.0311355Z" fill="#7C9EE2"/>
<path fill-rule="evenodd" clip-rule="evenodd" d="M96.5466 11.0034C96.511 11.0296 96.4019 11.1281 96.2979 11.4629C96.1677 11.8818 96.1161 12.4908 96.2092 13.1792L96.2093 13.1805C96.3011 13.8685 96.5119 14.4419 96.7482 14.8113C96.9352 15.1037 97.0654 15.171 97.1074 15.1876C97.1433 15.1604 97.2507 15.0605 97.3538 14.7281C97.484 14.3082 97.5362 13.699 97.4457 13.0129C97.3554 12.3283 97.1453 11.7541 96.9087 11.383C96.7192 11.0858 96.5876 11.0194 96.5466 11.0034ZM98.0415 10.6575C98.4052 11.2279 98.6682 11.9996 98.7785 12.8364C98.8887 13.6718 98.8375 14.4835 98.6376 15.128C98.4563 15.7126 98.0574 16.4257 97.2892 16.53C96.5216 16.6344 95.947 16.0553 95.6164 15.5385C95.2525 14.9695 94.9888 14.1988 94.8769 13.3596C94.7635 12.5209 94.8137 11.7077 95.0143 11.0622C95.1969 10.4749 95.5983 9.76521 96.3664 9.66128C97.1364 9.55708 97.7115 10.14 98.0415 10.6575Z" fill="#7C9EE2"/>
<path d="M116.439 163.678C119.434 168.779 128.231 185.146 129.698 186.965C131.165 188.783 180.983 219.692 180.983 219.692C179.725 222.768 177.495 238.573 186.145 242C187.681 236.755 194.101 213.609 194.101 213.609L187.334 211.86L156.421 174.727C156.421 174.727 154.265 124.961 147.777 118.875C141.426 122.302 116.439 163.678 116.439 163.678Z" fill="#C4D1D9"/>
<path d="M143.642 196.255C136.046 191.409 130.186 187.571 129.698 186.953C128.231 185.134 119.44 168.77 116.439 163.666C116.439 163.666 141.426 122.29 147.777 118.863C152.107 122.924 154.502 146.312 155.616 161.508C153.083 174.526 149.295 187.19 143.642 196.255Z" fill="#A7B2B9"/>
<path d="M147.777 118.875C142.387 122.263 107.693 131.65 98.4802 132.727C94.4859 139.347 58.3876 220.919 58.3876 220.919C54.2406 217.687 39.0359 213.222 33.9697 219.227C38.8832 222.459 63.7622 239.386 63.7622 239.386C63.7622 239.386 147.017 131.344 147.777 118.875Z" fill="#E5EBEF"/>
<path fill-rule="evenodd" clip-rule="evenodd" d="M94.9726 35.8078C95.1036 35.9007 95.1752 36.0566 95.1604 36.2167L94.7442 40.715C94.7293 40.8751 94.6304 41.0152 94.4846 41.0824C94.3388 41.1496 94.1683 41.1337 94.0373 41.0407L90.3604 38.43C90.2295 38.337 90.158 38.1812 90.1728 38.0211C90.1877 37.861 90.2866 37.721 90.4323 37.6538L94.5254 35.7662C94.6712 35.699 94.8417 35.7149 94.9726 35.8078ZM91.5141 38.1459L93.9216 39.8553L94.1941 36.91L91.5141 38.1459Z" fill="#B75E42"/>
<path d="M138.486 45.5353C138.364 44.4375 137.375 43.6469 136.277 43.7696L59.2454 52.3746C58.1477 52.4972 57.3568 53.4866 57.4789 54.5844L59.2056 70.1106C59.3277 71.2084 60.3166 71.999 61.4143 71.8763L138.446 63.2713C139.544 63.1487 140.335 62.1593 140.213 61.0615L138.486 45.5353Z" fill="#95FAC9"/>
<path d="M102.975 53.1544L63.706 57.541C63.047 57.6147 62.5722 58.2098 62.6457 58.8703L63.3044 64.7933C63.3779 65.4538 63.9717 65.9295 64.6307 65.8559L103.899 61.4693C104.558 61.3957 105.033 60.8006 104.96 60.1401L104.301 54.2171C104.227 53.5566 103.634 53.0808 102.975 53.1544Z" fill="#40CD89"/>
<path d="M134.36 50.6528C134.299 50.1039 133.804 49.7086 133.256 49.77L122.486 50.973C121.937 51.0343 121.542 51.529 121.603 52.0779L122.306 58.405C122.367 58.9539 122.862 59.3492 123.411 59.2879L134.18 58.0848C134.729 58.0235 135.125 57.5288 135.064 56.9799L134.36 50.6528Z" fill="#40CD89"/>
<path d="M119.433 40.7566L97.3375 71.9507C95.5503 74.4738 96.1424 77.9712 98.66 79.7623L102.606 82.5694C105.123 84.3605 108.613 83.7671 110.4 81.2439L132.495 50.0498C134.282 47.5267 133.69 44.0293 131.172 42.2382L127.227 39.4312C124.709 37.6401 121.22 38.2335 119.433 40.7566Z" fill="#CFA0EB"/>
<path d="M54.5458 42.2982L37.3126 49.6864C35.1126 50.6296 34.092 53.1816 35.0331 55.3865L42.4051 72.6579C43.3462 74.8627 45.8926 75.8855 48.0926 74.9423L65.3258 67.5541C67.5258 66.6109 68.5464 64.0589 67.6053 61.854L60.2333 44.5826C59.2922 42.3778 56.7458 41.355 54.5458 42.2982Z" fill="#CFA0EB"/>
<path fill-rule="evenodd" clip-rule="evenodd" d="M50.3903 53.2305C47.6262 53.2305 45.3854 55.4762 45.3854 58.2464C45.3854 61.0166 47.6262 63.2623 50.3903 63.2623C53.1544 63.2623 55.3951 61.0166 55.3951 58.2464C55.3951 55.4762 53.1544 53.2305 50.3903 53.2305ZM44.041 58.2464C44.041 54.732 46.8837 51.8831 50.3903 51.8831C53.8969 51.8831 56.7395 54.732 56.7395 58.2464C56.7395 61.7607 53.8968 64.6097 50.3903 64.6097C46.8837 64.6097 44.041 61.7607 44.041 58.2464Z" fill="#8A42B7"/>
<path d="M120.056 72.3383H42.7811C41.2845 72.3383 40.0713 73.5542 40.0713 75.0541V113.135C40.0713 114.635 41.2845 115.851 42.7811 115.851H120.056C121.552 115.851 122.766 114.635 122.766 113.135V75.0541C122.766 73.5542 121.552 72.3383 120.056 72.3383Z" fill="white"/>
<path fill-rule="evenodd" clip-rule="evenodd" d="M104.642 114.842C104.64 112.805 105.242 110.813 106.371 109.119C107.499 107.424 109.103 106.103 110.981 105.323C112.859 104.543 114.925 104.338 116.919 104.735C118.913 105.131 120.744 106.112 122.182 107.552C123.62 108.992 124.599 110.827 124.996 112.825C125.393 114.823 125.19 116.894 124.412 118.776C123.635 120.658 122.318 122.267 120.628 123.399C118.937 124.531 116.95 125.135 114.918 125.135C112.193 125.135 109.581 124.051 107.654 122.121C105.727 120.191 104.643 117.573 104.642 114.842Z" fill="#DADADA"/>
<path fill-rule="evenodd" clip-rule="evenodd" d="M27.8467 102.629C27.8467 100.592 28.4494 98.6007 29.5785 96.9071C30.7077 95.2134 32.3126 93.8934 34.1903 93.1139C36.0681 92.3344 38.1342 92.1305 40.1276 92.5278C42.121 92.9252 43.952 93.9061 45.3892 95.3464C46.8263 96.7867 47.8051 98.6218 48.2016 100.62C48.5981 102.617 48.3946 104.688 47.6168 106.57C46.839 108.452 45.5219 110.06 43.832 111.192C42.1421 112.324 40.1553 112.928 38.1228 112.928C36.7733 112.928 35.4368 112.662 34.1899 112.145C32.9429 111.627 31.8099 110.869 30.8556 109.912C29.9013 108.956 29.1444 107.82 28.6281 106.571C28.1118 105.321 27.8463 103.981 27.8467 102.629Z" fill="#DADADA"/>
<path d="M122.832 80.8547L122.763 75.0511C122.763 74.3348 122.479 73.6479 121.974 73.1414C121.469 72.6349 120.783 72.3503 120.069 72.3503H42.7817C42.067 72.3503 41.3816 72.6349 40.8762 73.1414C40.3708 73.6479 40.0869 74.3348 40.0869 75.0511V82.5232C63.9718 77.4218 122.587 80.9027 122.832 80.8547Z" fill="#EAEAEA"/>
<path fill-rule="evenodd" clip-rule="evenodd" d="M124.662 47.6112C124.964 47.8266 125.036 48.2472 124.821 48.5506L109.838 69.7005C109.623 70.0039 109.203 70.0752 108.9 69.8598C108.598 69.6444 108.526 69.2239 108.741 68.9205L123.724 47.7705C123.939 47.4672 124.359 47.3958 124.662 47.6112Z" fill="#8A42B7"/>
<path d="M124.793 64.9863H37.7715C36.4204 64.9863 35.3252 66.0839 35.3252 67.4379V73.9078C35.3252 75.2618 36.4204 76.3595 37.7715 76.3595H124.793C126.144 76.3595 127.239 75.2618 127.239 73.9078V67.4379C127.239 66.0839 126.144 64.9863 124.793 64.9863Z" fill="white"/>
<path fill-rule="evenodd" clip-rule="evenodd" d="M68.9912 45.2543C69.2837 45.0888 69.6142 45.0026 69.9501 45.004C70.2858 45.0055 70.6154 45.0945 70.9064 45.2623C70.9065 45.2623 70.9066 45.2624 70.9067 45.2624C70.9067 45.2625 70.9066 45.2624 70.9067 45.2624L75.5963 47.9636C75.8906 48.1336 76.135 48.3784 76.305 48.6732C76.4749 48.968 76.5644 49.3025 76.5644 49.643C76.5644 49.9834 76.4749 50.3179 76.305 50.6127C76.135 50.9075 75.8906 51.1523 75.5963 51.3224L70.9067 54.0235C70.9066 54.0235 70.9068 54.0234 70.9067 54.0235C70.9067 54.0235 70.9064 54.0236 70.9064 54.0237C70.6125 54.1931 70.2792 54.2821 69.9401 54.2817C69.6009 54.2814 69.2678 54.1917 68.9741 54.0215C68.6804 53.8514 68.4365 53.6068 68.2669 53.3124C68.0973 53.018 68.008 52.684 68.0078 52.3441L68.0078 46.9182H68.7773L68.008 46.9021C68.015 46.5655 68.1094 46.2366 68.2818 45.9476C68.4542 45.6587 68.6987 45.4198 68.9912 45.2543ZM69.5468 46.9284L69.5468 52.3434C69.5468 52.3434 69.5468 52.3433 69.5468 52.3434C69.5469 52.4128 69.5652 52.4811 69.5998 52.5412C69.6344 52.6014 69.6843 52.6514 69.7443 52.6861C69.8043 52.7209 69.8724 52.7392 69.9417 52.7393C70.011 52.7394 70.0791 52.7212 70.1392 52.6865L74.8275 49.9861C74.8277 49.9861 74.8278 49.986 74.8279 49.9859C74.8879 49.9512 74.9377 49.9013 74.9724 49.8411C75.0071 49.7809 75.0254 49.7125 75.0254 49.643C75.0254 49.5734 75.0071 49.505 74.9724 49.4448C74.9377 49.3847 74.8879 49.3347 74.8279 49.3C74.8278 49.2999 74.8277 49.2999 74.8275 49.2998L70.139 46.5993C70.0795 46.565 70.0122 46.5468 69.9435 46.5465C69.8749 46.5462 69.8074 46.5638 69.7476 46.5976C69.6878 46.6314 69.6378 46.6802 69.6026 46.7393C69.5684 46.7966 69.5492 46.8617 69.5468 46.9284Z" fill="#B75E42"/>
</svg>
