<svg width="18" height="18" viewBox="0 0 18 18" fill="none" xmlns="http://www.w3.org/2000/svg">
<path d="M11 6C10.4477 6 10 5.55228 10 5C10 4.44772 10.4477 4 11 4C11.5523 4 12 4.44772 12 5C12 5.55228 11.5523 6 11 6Z" fill="#474747"/>
<path d="M11 10C10.4477 10 10 9.55228 10 9C10 8.44772 10.4477 8 11 8C11.5523 8 12 8.44772 12 9C12 9.55228 11.5523 10 11 10Z" fill="#474747"/>
<path d="M11 14C10.4477 14 10 13.5523 10 13C10 12.4477 10.4477 12 11 12C11.5523 12 12 12.4477 12 13C12 13.5523 11.5523 14 11 14Z" fill="#474747"/>
<path d="M7 6C6.44772 6 6 5.55228 6 5C6 4.44772 6.44772 4 7 4C7.55228 4 8 4.44772 8 5C8 5.55228 7.55228 6 7 6Z" fill="#474747"/>
<path d="M7 10C6.44772 10 6 9.55228 6 9C6 8.44772 6.44772 8 7 8C7.55228 8 8 8.44772 8 9C8 9.55228 7.55228 10 7 10Z" fill="#474747"/>
<path d="M7 14C6.44772 14 6 13.5523 6 13C6 12.4477 6.44772 12 7 12C7.55228 12 8 12.4477 8 13C8 13.5523 7.55228 14 7 14Z" fill="#474747"/>
</svg>
