<svg width="24" height="24" viewBox="0 0 24 24" fill="none" xmlns="http://www.w3.org/2000/svg">
<path fill-rule="evenodd" clip-rule="evenodd" d="M11.7929 12.5L3 12.5L3 11.5L11.7929 11.5L9.64645 9.35355L10.3536 8.64645L13.7071 12L10.3536 15.3536L9.64645 14.6464L11.7929 12.5ZM9 18C9 18.2761 9.22386 18.5 9.5 18.5L16 18.5C16.2761 18.5 16.5 18.2761 16.5 18L16.5 6C16.5 5.72386 16.2761 5.5 16 5.5L9.5 5.5C9.22386 5.5 9 5.72386 9 6L9 8L8 8L8 6C8 5.17157 8.67157 4.5 9.5 4.5L16 4.5C16.8284 4.5 17.5 5.17157 17.5 6L17.5 18C17.5 18.8284 16.8284 19.5 16 19.5L9.5 19.5C8.67157 19.5 8 18.8284 8 18L8 16L9 16L9 18Z" fill="#474747"/>
</svg>
