<svg width="18" height="18" viewBox="0 0 18 18" fill="none" xmlns="http://www.w3.org/2000/svg">
<path d="M17 4C17 2.89543 16.1046 2 15 2C13.8954 2 13 2.89543 13 4C13 4.60194 13.2659 5.14178 13.6867 5.50843L11.9189 9.04395C11.7838 9.01515 11.6437 9 11.5 9C11.0498 9 10.6343 9.14875 10.3001 9.39978L8.32489 7.81961C8.4374 7.56949 8.5 7.29205 8.5 7C8.5 5.89543 7.60457 5 6.5 5C5.39543 5 4.5 5.89543 4.5 7C4.5 7.60194 4.76592 8.14178 5.1867 8.50843L3.41894 12.0439C3.28384 12.0152 3.14369 12 3 12C1.89543 12 1 12.8954 1 14C1 15.1046 1.89543 16 3 16C4.10457 16 5 15.1046 5 14C5 13.398 4.73404 12.8581 4.31321 12.4915L6.08094 8.95603C6.21608 8.98484 6.35627 9 6.5 9C6.95019 9 7.36564 8.85126 7.69988 8.60023L9.6751 10.1804C9.5626 10.4305 9.5 10.708 9.5 11C9.5 12.1046 10.3954 13 11.5 13C12.6046 13 13.5 12.1046 13.5 11C13.5 10.398 13.234 9.85814 12.8132 9.49149L14.5809 5.95603C14.7161 5.98484 14.8563 6 15 6C16.1046 6 17 5.10457 17 4Z" fill="#4676D4"/>
</svg>
