<svg width="18" height="18" viewBox="0 0 18 18" fill="none" xmlns="http://www.w3.org/2000/svg">
<path fill-rule="evenodd" clip-rule="evenodd" d="M10.4014 6.42695C10.7708 6.06406 11 5.55879 11 5C11 3.89543 10.1046 3 9 3C7.89543 3 7 3.89543 7 5C7 5.5589 7.22925 6.06425 7.59885 6.42716L4.36245 12.0328C4.2449 12.0112 4.12376 12 4 12C2.89543 12 2 12.8954 2 14C2 15.1046 2.89543 16 4 16C4.93192 16 5.71497 15.3626 5.93699 14.5H12.063C12.285 15.3626 13.0681 16 14 16C15.1046 16 16 15.1046 16 14C16 12.8954 15.1046 12 14 12C13.8763 12 13.7553 12.0112 13.6378 12.0327L10.4014 6.42695ZM8.46465 6.92754C8.63504 6.97477 8.81457 7 9 7C9.18553 7 9.36516 6.97474 9.53564 6.92746L12.7279 12.4566C12.4069 12.7215 12.1699 13.0847 12.063 13.5H5.93699C5.83011 13.0848 5.59323 12.7217 5.27232 12.4568L8.46465 6.92754Z" fill="#4676D4"/>
</svg>
