<svg width="18" height="18" viewBox="0 0 18 18" fill="none" xmlns="http://www.w3.org/2000/svg">
<path d="M3 2.5C2.82671 2.5 2.66578 2.58973 2.57468 2.73713C2.48357 2.88454 2.47529 3.06861 2.55279 3.22361L3.55279 5.22361C3.63748 5.393 3.81061 5.5 4 5.5C4.18939 5.5 4.36252 5.393 4.44721 5.22361L5.30902 3.5H8V13.7324L6.72265 14.584C6.53932 14.7062 6.45761 14.934 6.52145 15.1449C6.5853 15.3558 6.77967 15.5 7 15.5H11C11.2203 15.5 11.4147 15.3558 11.4785 15.1449C11.5424 14.934 11.4607 14.7062 11.2774 14.584L10 13.7324V3.5H12.691L13.5528 5.22361C13.6375 5.393 13.8106 5.5 14 5.5C14.1894 5.5 14.3625 5.393 14.4472 5.22361L15.4472 3.22361C15.5247 3.06861 15.5164 2.88454 15.4253 2.73713C15.3342 2.58973 15.1733 2.5 15 2.5H3Z" fill="#4676D4"/>
</svg>
