<svg width="18" height="18" viewBox="0 0 18 18" fill="none" xmlns="http://www.w3.org/2000/svg">
<path d="M6.44252 3.97802C6.48008 3.82485 6.5 3.66475 6.5 3.5C6.5 2.39543 5.60457 1.5 4.5 1.5C3.39543 1.5 2.5 2.39543 2.5 3.5C2.5 4.60457 3.39543 5.5 4.5 5.5C5.0802 5.5 5.6027 5.25294 5.96803 4.85828L9.74415 6.89158L9.34198 7.02563C9.08001 7.11296 8.93843 7.39612 9.02575 7.65809C9.11308 7.92006 9.39624 8.06164 9.65821 7.97432L11.1582 7.47432C11.4202 7.38699 11.5618 7.10383 11.4744 6.84186L10.9744 5.34186C10.8871 5.07989 10.604 4.93831 10.342 5.02563C10.08 5.11296 9.93843 5.39612 10.0258 5.65809L10.1271 5.962L6.44252 3.97802Z" fill="#4676D4"/>
<path d="M13.032 10.3583C13.3974 10.753 13.9198 11 14.5 11C15.6046 11 16.5 10.1046 16.5 9C16.5 7.89543 15.6046 7 14.5 7C13.3954 7 12.5 7.89543 12.5 9C12.5 9.16478 12.5199 9.32491 12.5575 9.47811L8.87314 11.462L8.97444 11.1581C9.06176 10.8961 8.92018 10.613 8.65821 10.5256C8.39624 10.4383 8.11308 10.5799 8.02576 10.8419L7.52576 12.3419C7.43843 12.6038 7.58001 12.887 7.84198 12.9743L9.34198 13.4743C9.60395 13.5616 9.88711 13.4201 9.97444 13.1581C10.0618 12.8961 9.92018 12.613 9.65821 12.5256L9.25604 12.3916L13.032 10.3583Z" fill="#4676D4"/>
<path d="M2.5 14.5C2.5 13.3954 3.39543 12.5 4.5 12.5C5.60457 12.5 6.5 13.3954 6.5 14.5C6.5 15.6046 5.60457 16.5 4.5 16.5C3.39543 16.5 2.5 15.6046 2.5 14.5Z" fill="#4676D4"/>
</svg>
