<svg width="200" height="200" viewBox="0 0 200 200" fill="none" xmlns="http://www.w3.org/2000/svg">
<path d="M159.23 50.1568C169.184 67.7055 173.111 83.8108 173.305 100.071C173.499 116.332 169.932 132.789 159.93 148.308C149.928 163.827 133.565 178.453 111.751 183.871C89.9376 189.289 62.7182 185.562 48.2216 169.99C33.725 154.417 31.8837 127.174 35.9654 103.97C40.047 80.7662 50.0038 61.6135 64.5088 44.0733C79.0139 26.533 98.1037 10.5884 115.642 12.0994C133.18 13.6104 149.237 32.611 159.23 50.1568Z" fill="#FCFCFD"/>
<path fill-rule="evenodd" clip-rule="evenodd" d="M112.483 18.9777C112.678 19.004 112.848 19.1225 112.941 19.2962L185.927 155.7C186.039 155.909 186.021 156.164 185.88 156.355C185.74 156.546 185.502 156.639 185.27 156.593L14.4956 123.216C14.2759 123.173 14.097 123.013 14.029 122.799C13.961 122.585 14.0146 122.351 14.169 122.189L111.957 19.163C112.093 19.0203 112.288 18.9513 112.483 18.9777ZM15.8278 122.224L184.236 155.139L112.261 20.6253L15.8278 122.224Z" fill="#C4D1D9"/>
<path d="M65.9818 24.5571H49.377V55.7163H65.9818V24.5571Z" fill="#A7B2B9"/>
<path d="M56.5088 67.1701L104.243 166.21L151.632 66.0933L56.5088 67.1701Z" fill="#7C9EE2"/>
<path d="M103.785 54.2926C112.038 54.2926 118.729 47.5831 118.729 39.3065C118.729 31.0298 112.038 24.3203 103.785 24.3203C95.5323 24.3203 88.8418 31.0298 88.8418 39.3065C88.8418 47.5831 95.5323 54.2926 103.785 54.2926Z" fill="#DADADA"/>
<path fill-rule="evenodd" clip-rule="evenodd" d="M97.8338 18.0459C98.1654 17.9385 98.5211 18.121 98.6283 18.4537C100.326 23.7244 103.577 28.3554 107.952 31.7357C112.327 35.1161 117.622 37.0871 123.137 37.3889C123.485 37.4079 123.751 37.7063 123.732 38.0553C123.713 38.4043 123.416 38.6718 123.068 38.6528C117.298 38.3371 111.759 36.275 107.182 32.7385C102.604 29.2019 99.2033 24.357 97.4272 18.8427C97.3201 18.5101 97.5021 18.1534 97.8338 18.0459Z" fill="#7C9EE2"/>
<path fill-rule="evenodd" clip-rule="evenodd" d="M105.278 38.3655C105.254 38.3795 105.119 38.4618 104.995 38.8609C104.862 39.2889 104.81 39.9071 104.903 40.6035C104.996 41.3006 105.208 41.8824 105.448 42.2592C105.674 42.6141 105.827 42.6545 105.852 42.6606C105.876 42.6479 106.013 42.5685 106.138 42.1657C106.271 41.7389 106.323 41.1217 106.23 40.4251C106.137 39.7289 105.924 39.1463 105.683 38.7686C105.458 38.4161 105.306 38.3725 105.278 38.3655ZM106.746 38.0865C107.107 38.6517 107.369 39.4195 107.481 40.2568C107.593 41.0938 107.542 41.903 107.343 42.5432C107.16 43.1296 106.764 43.8171 106.02 43.917C105.275 44.017 104.714 43.4577 104.384 42.9403C104.025 42.3755 103.764 41.6084 103.652 40.7719C103.54 39.9348 103.591 39.1251 103.79 38.4846C103.971 37.8993 104.366 37.2092 105.11 37.1089C105.854 37.0086 106.417 37.5699 106.746 38.0865Z" fill="#7C9EE2"/>
<path d="M144.585 165.293C142.899 168.854 139.143 177.931 145.935 187.998L158.109 162.299L148.234 157.594L144.585 165.293Z" fill="#E5EBEF"/>
<path fill-rule="evenodd" clip-rule="evenodd" d="M128.813 90.8755C128.813 88.5152 129.51 86.208 130.818 84.2455C132.126 82.2831 133.984 80.7536 136.159 79.8505C138.333 78.9474 140.726 78.7112 143.034 79.1719C145.342 79.6326 147.463 80.7694 149.127 82.4385C150.791 84.1077 151.924 86.2342 152.383 88.5492C152.841 90.8642 152.605 93.2636 151.704 95.4441C150.803 97.6245 149.278 99.488 147.32 100.799C145.363 102.11 143.062 102.809 140.709 102.809C139.146 102.809 137.599 102.5 136.156 101.9C134.712 101.3 133.401 100.421 132.296 99.3133C131.191 98.2052 130.315 96.8897 129.717 95.4419C129.12 93.9941 128.812 92.4424 128.813 90.8755V90.8755Z" fill="#DADADA"/>
<path fill-rule="evenodd" clip-rule="evenodd" d="M35.9258 51.4087C35.9258 49.0486 36.6237 46.7414 37.9312 44.779C39.2387 42.8166 41.0971 41.2871 43.2714 40.3839C45.4456 39.4808 47.8382 39.2444 50.1464 39.7049C52.4546 40.1653 54.5748 41.3018 56.239 42.9707C57.9031 44.6396 59.0364 46.7659 59.4955 49.0807C59.9547 51.3955 59.719 53.7948 58.8184 55.9753C57.9178 58.1558 56.3926 60.0195 54.4358 61.3307C52.479 62.6419 50.1784 63.3418 47.825 63.3418C44.6691 63.3418 41.6425 62.0846 39.411 59.8467C37.1794 57.6088 35.9258 54.5736 35.9258 51.4087V51.4087Z" fill="#DADADA"/>
<path fill-rule="evenodd" clip-rule="evenodd" d="M111.111 65.9609C111.5 66.048 111.745 66.4351 111.659 66.8257C109.826 75.0697 110.751 83.6896 114.292 91.3534C117.833 99.0172 123.792 105.298 131.248 109.226C131.601 109.412 131.737 109.85 131.552 110.204C131.366 110.559 130.929 110.695 130.576 110.509C122.839 106.433 116.655 99.9152 112.981 91.9625C109.307 84.0099 108.346 75.0651 110.248 66.5103C110.335 66.1198 110.721 65.8738 111.111 65.9609Z" fill="#9EF5EE"/>
<path fill-rule="evenodd" clip-rule="evenodd" d="M75.0257 106.932C75.0976 106.538 75.4741 106.278 75.8666 106.35C81.8346 107.448 87.4727 109.901 92.3483 113.523C97.224 117.145 101.208 121.839 103.994 127.244C106.78 132.65 108.295 138.623 108.422 144.707C108.549 150.79 107.285 156.822 104.727 162.34C104.559 162.703 104.129 162.86 103.767 162.691C103.405 162.523 103.248 162.092 103.417 161.729C105.882 156.412 107.1 150.599 106.977 144.737C106.855 138.875 105.395 133.118 102.71 127.91C100.025 122.701 96.1866 118.178 91.4883 114.688C86.7899 111.198 81.3569 108.833 75.6059 107.775C75.2135 107.703 74.9537 107.325 75.0257 106.932Z" fill="#9EF5EE"/>
<path fill-rule="evenodd" clip-rule="evenodd" d="M101.106 65.9573C101.498 66.0351 101.752 66.4163 101.675 66.8088C100.171 74.4204 96.4848 81.4264 91.0685 86.9678C85.6523 92.5092 78.7412 96.345 71.1828 98.0049C70.793 98.0905 70.4079 97.843 70.3225 97.4522C70.2372 97.0613 70.484 96.675 70.8737 96.5894C78.1574 94.9899 84.8173 91.2935 90.0367 85.9535C95.2561 80.6135 98.8082 73.8621 100.257 66.5272C100.335 66.1347 100.715 65.8795 101.106 65.9573Z" fill="#9EF5EE"/>
<path d="M68.3974 166.72C68.2456 170.666 67.3798 180.448 56.709 186.211L57.7997 157.78L68.7234 158.2L68.3974 166.72Z" fill="#C4D1D9"/>
<path d="M155.343 137.878C143.16 100.951 73.0329 154.643 67.3152 158.922C60.8217 163.782 65.8338 170.424 68.6589 170.867C71.484 171.309 163.852 163.664 155.343 137.878Z" fill="#C4D1D9"/>
<path d="M60.3827 131.54C47.6683 168.284 135.907 168.419 143.028 168.51C151.129 168.614 151.18 160.284 149.212 158.209C147.244 156.134 69.2656 105.873 60.3827 131.54Z" fill="#E5EBEF"/>
</svg>
