<svg width="200" height="200" viewBox="0 0 200 200" fill="none" xmlns="http://www.w3.org/2000/svg">
<g clip-path="url(#clip0)">
<path d="M180.852 21.1176C197.955 35.7573 201.822 66.2318 199.303 94.2152C196.814 122.201 187.963 147.638 170.861 167.863C153.702 188.135 128.312 203.141 106.636 199.308C85.0158 195.523 67.2221 172.896 50.2573 152.625C33.2468 132.402 17.1133 114.576 11.3515 90.9349C5.58973 67.3398 10.2454 37.9273 27.2102 23.3358C44.1726 8.69837 73.538 8.82683 103.41 8.28088C133.281 7.73493 163.704 6.53292 180.852 21.1176Z" fill="#FCFCFD"/>
<path d="M174.854 10H26V190.072H174.854V10Z" fill="#F2F6F9"/>
<path d="M100.427 141.666C129.833 141.666 153.671 117.788 153.671 88.3324C153.671 58.8772 129.833 34.999 100.427 34.999C71.0217 34.999 47.1836 58.8772 47.1836 88.3324C47.1836 117.788 71.0217 141.666 100.427 141.666Z" fill="white"/>
<path fill-rule="evenodd" clip-rule="evenodd" d="M100.427 35.343C71.2112 35.343 47.5269 59.0671 47.5269 88.3322C47.5269 117.597 71.2112 141.321 100.427 141.321C129.643 141.321 153.328 117.597 153.328 88.3322C153.328 59.0671 129.643 35.343 100.427 35.343ZM46.8398 88.3322C46.8398 58.687 70.8317 34.6548 100.427 34.6548C130.023 34.6548 154.015 58.687 154.015 88.3322C154.015 117.977 130.023 142.01 100.427 142.01C70.8317 142.01 46.8398 117.977 46.8398 88.3322Z" fill="#C2C2C2"/>
<path d="M100.649 72.8506C108.762 72.8506 115.338 66.2633 115.338 58.1374C115.338 50.0116 108.762 43.4243 100.649 43.4243C92.5372 43.4243 85.9609 50.0116 85.9609 58.1374C85.9609 66.2633 92.5372 72.8506 100.649 72.8506Z" fill="#DADADA"/>
<path fill-rule="evenodd" clip-rule="evenodd" d="M99.8829 53.1728C100.208 53.7034 100.444 54.431 100.537 55.2309L100.538 55.2318C100.63 56.0362 100.566 56.7988 100.369 57.389C100.185 57.9443 99.8225 58.5028 99.2162 58.5742C98.6065 58.6461 98.1259 58.177 97.8212 57.679C97.4961 57.1477 97.26 56.4194 97.1675 55.6215C97.0751 54.8231 97.1395 54.0602 97.3354 53.4686C97.5192 52.914 97.8809 52.3482 98.4901 52.2784C99.0983 52.2087 99.5779 52.6747 99.8829 53.1728ZM99.1704 53.6106C98.9023 53.1728 98.6777 53.0997 98.5851 53.1103C98.4936 53.1208 98.2908 53.2432 98.1288 53.7323C97.979 54.1845 97.9163 54.8208 97.9978 55.525C98.0794 56.2295 98.2853 56.8352 98.5339 57.2415C98.8028 57.6811 99.0275 57.7534 99.1186 57.7427C99.213 57.7315 99.4153 57.6087 99.5764 57.1243C99.7259 56.6748 99.7888 56.0395 99.7072 55.3279C99.6244 54.6208 99.4186 54.0159 99.1704 53.6106Z" fill="#7C9EE2"/>
<path fill-rule="evenodd" clip-rule="evenodd" d="M49.0156 157.838C49.0156 157.394 49.3745 157.035 49.8171 157.035H151.038C151.48 157.035 151.839 157.394 151.839 157.838C151.839 158.281 151.48 158.64 151.038 158.64H49.8171C49.3745 158.64 49.0156 158.281 49.0156 157.838Z" fill="#C4D1D9"/>
<path fill-rule="evenodd" clip-rule="evenodd" d="M76.166 173.895C76.166 173.452 76.5249 173.092 76.9675 173.092H123.886C124.329 173.092 124.688 173.452 124.688 173.895C124.688 174.339 124.329 174.698 123.886 174.698H76.9675C76.5249 174.698 76.166 174.339 76.166 173.895Z" fill="#C4D1D9"/>
<path d="M98.2084 78.0259C77.5498 78.0259 70.9361 108.927 69.8369 131.988C78.4035 138.009 88.5511 141.368 99.0125 141.647C109.474 141.926 119.785 139.111 128.659 133.554C127.244 110.322 120.04 78.0236 98.2084 78.0259Z" fill="#7C9EE2"/>
<path fill-rule="evenodd" clip-rule="evenodd" d="M108.581 123.5C101.401 123.5 95.5811 129.32 95.5811 136.5C95.5811 138.123 95.8783 139.676 96.4208 141.107C96.5187 141.365 96.3887 141.654 96.1305 141.752C95.8723 141.849 95.5836 141.719 95.4857 141.461C94.9009 139.919 94.5811 138.246 94.5811 136.5C94.5811 128.768 100.849 122.5 108.581 122.5C116.313 122.5 122.581 128.768 122.581 136.5C122.581 136.673 122.578 136.846 122.572 137.018C122.562 137.294 122.33 137.51 122.054 137.5C121.778 137.49 121.562 137.258 121.572 136.982C121.578 136.822 121.581 136.661 121.581 136.5C121.581 129.32 115.761 123.5 108.581 123.5Z" fill="#9EF5EE"/>
<path fill-rule="evenodd" clip-rule="evenodd" d="M71.9278 110.293C71.9337 109.967 72.202 109.708 72.527 109.714C75.7832 109.773 78.9204 110.951 81.4136 113.05C83.9069 115.149 85.605 118.041 86.2239 121.244C86.8428 124.447 86.345 127.766 84.8136 130.645C83.2823 133.524 80.8104 135.789 77.8114 137.061C77.5121 137.188 77.1667 137.048 77.0399 136.748C76.9132 136.448 77.0531 136.102 77.3524 135.975C80.103 134.809 82.3702 132.731 83.7748 130.09C85.1793 127.45 85.6359 124.406 85.0683 121.468C84.5006 118.531 82.9431 115.877 80.6563 113.952C78.3696 112.027 75.4922 110.947 72.5056 110.893C72.1806 110.887 71.9219 110.618 71.9278 110.293Z" fill="#9EF5EE"/>
<path fill-rule="evenodd" clip-rule="evenodd" d="M105.651 90.0824C98.4515 90.0824 92.6156 95.9282 92.6156 103.139C92.6156 110.35 98.4515 116.196 105.651 116.196C112.85 116.196 118.686 110.35 118.686 103.139C118.686 95.9282 112.85 90.0824 105.651 90.0824ZM91.4385 103.139C91.4385 95.277 97.8015 88.9033 105.651 88.9033C113.5 88.9033 119.863 95.277 119.863 103.139C119.863 111.002 113.5 117.375 105.651 117.375C97.8015 117.375 91.4385 111.002 91.4385 103.139Z" fill="#9EF5EE"/>
<path fill-rule="evenodd" clip-rule="evenodd" d="M94.2854 77.7491C94.559 77.7865 94.7504 78.0386 94.713 78.3122C93.6845 85.8377 87.1076 91.5143 79.3513 91.255C79.0753 91.2458 78.859 91.0146 78.8683 90.7386C78.8775 90.4626 79.1087 90.2464 79.3847 90.2556C86.6233 90.4976 92.7624 85.1996 93.7223 78.1768C93.7597 77.9032 94.0118 77.7117 94.2854 77.7491Z" fill="#9EF5EE"/>
<path fill-rule="evenodd" clip-rule="evenodd" d="M85.9064 96.7134C86.8339 97.1536 87.2296 98.2636 86.7901 99.1927C84.0713 104.941 82.179 111.853 80.9202 118.991C80.7416 120.003 79.7776 120.679 78.7669 120.5C77.7561 120.321 77.0815 119.355 77.2601 118.343C78.5525 111.015 80.5211 103.751 83.4313 97.5986C83.8707 96.6695 84.9789 96.2732 85.9064 96.7134Z" fill="white"/>
<path fill-rule="evenodd" clip-rule="evenodd" d="M100.427 35.343C71.2112 35.343 47.5269 59.0671 47.5269 88.3322C47.5269 117.597 71.2112 141.321 100.427 141.321C129.643 141.321 153.328 117.597 153.328 88.3322C153.328 59.0671 129.643 35.343 100.427 35.343ZM46.8398 88.3322C46.8398 58.687 70.8317 34.6548 100.427 34.6548C130.023 34.6548 154.015 58.687 154.015 88.3322C154.015 117.977 130.023 142.01 100.427 142.01C70.8317 142.01 46.8398 117.977 46.8398 88.3322Z" fill="#C4D1D9"/>
<path fill-rule="evenodd" clip-rule="evenodd" d="M61.8008 133.016C61.8012 131.304 62.3082 129.632 63.2577 128.209C64.2071 126.786 65.5564 125.678 67.1348 125.023C68.7133 124.369 70.45 124.198 72.1255 124.532C73.801 124.866 75.3399 125.69 76.5477 126.9C77.7556 128.111 78.578 129.652 78.9112 131.331C79.2443 133.009 79.0731 134.749 78.4192 136.33C77.7653 137.911 76.6582 139.262 75.2377 140.212C73.8172 141.163 72.1472 141.67 70.4389 141.67C69.3043 141.67 68.1809 141.447 67.1327 141.012C66.0845 140.577 65.1322 139.939 64.33 139.135C63.5279 138.332 62.8916 137.378 62.4577 136.327C62.0237 135.277 61.8005 134.152 61.8008 133.016V133.016Z" fill="#DADADA"/>
<path fill-rule="evenodd" clip-rule="evenodd" d="M134.625 59.6103C134.625 57.8991 135.132 56.2264 136.082 54.8038C137.031 53.3812 138.381 52.2725 139.959 51.6179C141.537 50.9634 143.274 50.7924 144.95 51.1265C146.625 51.4606 148.164 52.2849 149.372 53.4951C150.58 54.7052 151.402 56.247 151.735 57.9254C152.069 59.6038 151.897 61.3434 151.243 62.9243C150.59 64.5052 149.482 65.8565 148.062 66.8071C146.641 67.7578 144.971 68.2652 143.263 68.2652C142.129 68.2652 141.005 68.0413 139.957 67.6063C138.909 67.1714 137.956 66.5338 137.154 65.7301C136.352 64.9264 135.716 63.9723 135.282 62.9222C134.848 61.8722 134.625 60.7468 134.625 59.6103V59.6103Z" fill="#DADADA"/>
<path d="M88.2831 44.576C93.356 44.576 97.4685 40.4567 97.4685 35.3752C97.4685 30.2937 93.356 26.1743 88.2831 26.1743C83.2101 26.1743 79.0977 30.2937 79.0977 35.3752C79.0977 40.4567 83.2101 44.576 88.2831 44.576Z" fill="#7C9EE2"/>
</g>
<defs>
<clipPath id="clip0">
<rect width="200" height="200" fill="white"/>
</clipPath>
</defs>
</svg>
