<svg width="150" height="150" viewBox="0 0 150 150" fill="none" xmlns="http://www.w3.org/2000/svg">
<circle cx="75" cy="75" r="75" fill="#474747"/>
<path d="M87 49.2857C87 53.0025 86.302 55.8582 84.687 57.7778C83.1454 59.6101 80.3499 61.0714 75 61.0714L75 66.0714C81.2501 66.0714 85.7046 64.3348 88.513 60.9967C91.248 57.7459 92 53.4587 92 49.2857H87ZM75 61.0714C69.6501 61.0714 66.8546 59.6101 65.313 57.7778C63.698 55.8582 63 53.0025 63 49.2857H58C58 53.4587 58.752 57.7459 61.487 60.9967C64.2954 64.3348 68.7499 66.0714 75 66.0714L75 61.0714ZM63 49.2857C63 45.569 63.698 42.7132 65.313 40.7937C66.8546 38.9614 69.6501 37.5 75 37.5V32.5C68.7499 32.5 64.2954 34.2366 61.487 37.5747C58.752 40.8256 58 45.1127 58 49.2857H63ZM75 37.5C80.3499 37.5 83.1454 38.9614 84.687 40.7937C86.302 42.7132 87 45.569 87 49.2857H92C92 45.1127 91.248 40.8256 88.513 37.5747C85.7046 34.2366 81.2501 32.5 75 32.5V37.5ZM48.5 103.571C48.5 90.8712 58.7666 80.3571 75 80.3571V75.3571C56.4334 75.3571 43.5 87.7002 43.5 103.571H48.5ZM75 80.3571C91.2334 80.3571 101.5 90.8712 101.5 103.571H106.5C106.5 87.7002 93.5666 75.3571 75 75.3571V80.3571ZM43.5 103.571C43.5 106.365 44.8579 108.662 46.819 110.429C48.7437 112.163 51.3487 113.491 54.236 114.502C60.0244 116.53 67.576 117.5 75 117.5C82.424 117.5 89.9756 116.53 95.764 114.502C98.6513 113.491 101.256 112.163 103.181 110.429C105.142 108.662 106.5 106.365 106.5 103.571H101.5C101.5 104.587 101.045 105.623 99.8346 106.714C98.5874 107.837 96.6612 108.89 94.111 109.783C89.0244 111.565 82.076 112.5 75 112.5C67.924 112.5 60.9756 111.565 55.889 109.783C53.3388 108.89 51.4126 107.837 50.1654 106.714C48.9546 105.623 48.5 104.587 48.5 103.571H43.5Z" fill="white"/>
</svg>
